<?xml version="1.0" encoding="utf-8"?>
<!-- Generator: Adobe Illustrator 24.2.1, SVG Export Plug-In . SVG Version: 6.00 Build 0)  -->
<svg version="1.1" id="Layer_1" xmlns="http://www.w3.org/2000/svg" xmlns:xlink="http://www.w3.org/1999/xlink" x="0px" y="0px"
	 viewBox="0 0 101 101" style="enable-background:new 0 0 101 101;" xml:space="preserve">
<g>
	<g>
		<path d="M97.765,73H3.235C1.451,73,0,71.549,0,69.765V9.902c0-1.784,1.451-3.235,3.235-3.235h94.53
			c1.784,0,3.235,1.451,3.235,3.235v59.863C101,71.549,99.549,73,97.765,73z M3.235,7.667C2.003,7.667,1,8.67,1,9.902v59.863
			C1,70.997,2.003,72,3.235,72h94.53c1.232,0,2.235-1.003,2.235-2.235V9.902c0-1.232-1.003-2.235-2.235-2.235H3.235z"/>
		<rect x="0.579" y="12" width="99.843" height="1"/>
		<rect x="0.579" y="66.667" width="99.843" height="1"/>
		<path d="M53.773,89.126h-6.545c-3.448,0-6.253-2.805-6.253-6.253V72h19.052v10.873C60.026,86.322,57.221,89.126,53.773,89.126z
			 M41.974,73v9.873c0,2.896,2.356,5.253,5.253,5.253h6.545c2.896,0,5.253-2.356,5.253-5.253V73H41.974z"/>
		<path d="M73.833,94.333H27.167c-0.276,0-0.5-0.224-0.5-0.5v-5.979c0-0.207,0.128-0.394,0.322-0.467l14.307-5.459
			c0.154-0.061,0.326-0.037,0.462,0.055c0.135,0.094,0.216,0.248,0.216,0.412v0.479c0,2.896,2.356,5.253,5.253,5.253h6.545
			c2.896,0,5.253-2.356,5.253-5.253v-0.479c0-0.164,0.081-0.318,0.217-0.412c0.135-0.093,0.308-0.113,0.462-0.055l14.308,5.459
			c0.193,0.073,0.321,0.26,0.321,0.467v5.979C74.333,94.11,74.11,94.333,73.833,94.333z M27.667,93.333h45.667v-5.135l-13.313-5.08
			c-0.129,3.335-2.883,6.008-6.248,6.008h-6.545c-3.366,0-6.119-2.673-6.249-6.007l-13.312,5.079V93.333z"/>
	</g>
	<path d="M25.736,51.483h-4.089c-0.647,0-1.173-0.527-1.173-1.176v-1.417c-0.262-0.095-0.521-0.204-0.777-0.324l-0.997,1.001
		c-0.444,0.445-1.218,0.444-1.66,0l-2.892-2.903c-0.456-0.458-0.456-1.204,0-1.662l0.999-1.003c-0.12-0.257-0.229-0.519-0.324-0.783
		h-1.409c-0.647,0-1.173-0.528-1.173-1.176v-4.106c0-0.648,0.526-1.176,1.173-1.176h1.409c0.096-0.264,0.204-0.526,0.324-0.783
		l-0.999-1.002c-0.456-0.458-0.456-1.204,0-1.662l2.892-2.904c0.443-0.444,1.217-0.445,1.661,0l0.997,1
		c0.255-0.12,0.514-0.228,0.777-0.324v-1.417c0-0.648,0.526-1.176,1.173-1.176h4.089c0.647,0,1.173,0.527,1.173,1.176v1.417
		c0.263,0.096,0.522,0.205,0.777,0.324l0.997-1.001c0.221-0.222,0.516-0.345,0.83-0.345c0,0,0,0,0,0c0.313,0,0.608,0.123,0.83,0.345
		l2.892,2.903c0.456,0.458,0.456,1.204,0,1.662l-0.999,1.002c0.12,0.256,0.229,0.519,0.325,0.783h1.409
		c0.646,0,1.173,0.527,1.173,1.176v4.106c0,0.648-0.526,1.176-1.173,1.176h-1.409c-0.096,0.264-0.205,0.526-0.325,0.783l0.999,1.003
		c0.456,0.458,0.456,1.204,0,1.662l-2.891,2.903c-0.222,0.222-0.517,0.345-0.831,0.345c0,0,0,0,0,0c-0.314,0-0.608-0.123-0.83-0.345
		l-0.997-1.001c-0.256,0.121-0.515,0.229-0.777,0.324v1.417C26.91,50.955,26.383,51.483,25.736,51.483z M19.501,47.345l0.326,0.169
		c0.422,0.219,0.859,0.402,1.299,0.542l0.348,0.111v2.139c0,0.097,0.078,0.176,0.173,0.176h4.089c0.096,0,0.173-0.079,0.173-0.176
		v-2.139l0.348-0.111c0.44-0.141,0.877-0.323,1.299-0.542l0.326-0.169l1.51,1.516c0.044,0.044,0.129,0.037,0.122,0.051
		c0.026,0,0.078-0.007,0.122-0.051l2.891-2.903c0.069-0.069,0.069-0.181,0-0.25l-1.508-1.514l0.167-0.324
		c0.217-0.422,0.399-0.862,0.541-1.306l0.111-0.348h2.132c0.095,0,0.173-0.079,0.173-0.176v-4.106c0-0.097-0.078-0.176-0.173-0.176
		h-2.132l-0.111-0.348c-0.142-0.446-0.324-0.885-0.541-1.306l-0.167-0.324l1.508-1.514c0.068-0.069,0.068-0.181,0-0.25l-2.892-2.903
		c-0.097-0.098-0.167-0.078-0.243,0l-1.51,1.517l-0.326-0.169c-0.419-0.218-0.856-0.401-1.3-0.543l-0.347-0.111v-2.139
		c0-0.097-0.078-0.176-0.173-0.176h-4.089c-0.096,0-0.173,0.079-0.173,0.176v2.139l-0.347,0.111c-0.443,0.142-0.88,0.325-1.3,0.543
		l-0.326,0.169l-1.51-1.516c-0.088-0.09-0.156-0.088-0.243,0l-2.892,2.904c-0.069,0.069-0.069,0.181,0,0.25l1.507,1.513
		l-0.167,0.324c-0.218,0.424-0.4,0.863-0.541,1.306l-0.111,0.349h-2.132c-0.096,0-0.173,0.079-0.173,0.176v4.106
		c0,0.097,0.078,0.176,0.173,0.176h2.132l0.111,0.349c0.141,0.443,0.322,0.882,0.54,1.305l0.167,0.324l-1.507,1.514
		c-0.069,0.069-0.069,0.181,0,0.25l2.892,2.903c0.086,0.088,0.155,0.091,0.243,0L19.501,47.345z M23.692,45.507
		c-3.032,0-5.5-2.477-5.5-5.521s2.467-5.521,5.5-5.521c3.033,0,5.5,2.477,5.5,5.521S26.725,45.507,23.692,45.507z M23.692,35.466
		c-2.481,0-4.5,2.028-4.5,4.521s2.019,4.521,4.5,4.521c2.481,0,4.5-2.028,4.5-4.521S26.173,35.466,23.692,35.466z"/>
	<path d="M40.546,55.513H37.2c-0.58,0-1.051-0.473-1.051-1.054v-1.096c-0.177-0.066-0.353-0.14-0.525-0.22l-0.77,0.773
		c-0.198,0.2-0.463,0.311-0.744,0.311h0c-0.281-0.001-0.545-0.111-0.744-0.312l-2.365-2.374c-0.409-0.41-0.409-1.078,0-1.488
		l0.772-0.775c-0.08-0.175-0.153-0.352-0.22-0.531h-1.806l2.779-2.791c0.069-0.069,0.069-0.181,0-0.25l-1.509-1.515l0.168-0.324
		c0.031-0.059,0.058-0.121,0.085-0.182l0.186-0.403h0.096c0.099-0.264,0.215-0.529,0.347-0.792l0.139-0.275h1.93
		c0.095,0,0.173-0.079,0.173-0.176v-4.64l1.481,1.488c0.173-0.08,0.349-0.153,0.525-0.219v-1.096c0-0.581,0.471-1.053,1.051-1.053
		h3.346c0.58,0,1.051,0.473,1.051,1.053v1.096c0.177,0.066,0.352,0.139,0.525,0.219l0.77-0.774c0.397-0.398,1.091-0.399,1.488,0
		l2.366,2.375c0.408,0.41,0.408,1.078,0,1.487l-0.773,0.776c0.08,0.175,0.153,0.352,0.22,0.531h1.089
		c0.58,0,1.051,0.473,1.051,1.053v3.359c0,0.581-0.471,1.053-1.051,1.053h-1.089c-0.066,0.179-0.14,0.356-0.22,0.531l0.772,0.775
		c0.409,0.411,0.409,1.078,0,1.488l-2.366,2.375c-0.396,0.4-1.091,0.4-1.488,0l-0.77-0.773c-0.172,0.08-0.348,0.153-0.525,0.22
		v1.096C41.597,55.04,41.125,55.513,40.546,55.513z M35.428,51.924l0.326,0.17c0.337,0.176,0.69,0.323,1.048,0.438l0.348,0.111
		v1.816l3.396,0.054l0.051-1.87l0.348-0.111c0.358-0.114,0.71-0.262,1.048-0.438l0.326-0.17l1.283,1.288l2.437-2.375l-1.281-1.362
		l0.167-0.324c0.176-0.341,0.323-0.696,0.436-1.054l0.11-0.349h1.812l0.051-3.412l-0.051-0.053h-1.812l-0.111-0.349
		c-0.113-0.358-0.26-0.712-0.436-1.054l-0.167-0.324l1.281-1.286l-2.366-2.451l-1.353,1.287l-0.326-0.169
		c-0.341-0.177-0.694-0.324-1.049-0.438l-0.348-0.111v-1.817L37.2,37.519l-0.051,1.87L36.802,39.5
		c-0.355,0.114-0.708,0.261-1.049,0.438l-0.326,0.169l-0.285-0.286v2.218c0,0.648-0.526,1.176-1.173,1.176h-1.306
		c-0.109,0.241-0.202,0.482-0.277,0.719l-0.052,0.163l0.901,0.904c0.456,0.458,0.456,1.204,0,1.662l-1.081,1.085h0.121l0.111,0.349
		c0.114,0.358,0.261,0.713,0.437,1.055l0.166,0.323l-1.279,1.286l2.365,2.452L35.428,51.924z M38.873,50.623
		c-2.531,0-4.591-2.067-4.591-4.607c0-2.541,2.06-4.608,4.591-4.608s4.591,2.067,4.591,4.608
		C43.464,48.556,41.404,50.623,38.873,50.623z M38.873,42.408c-1.98,0-3.591,1.619-3.591,3.608s1.611,3.607,3.591,3.607
		s3.591-1.618,3.591-3.607S40.853,42.408,38.873,42.408z"/>
	<g>
		<path d="M58.995,55.7h-4.997v-8.994h4.997V55.7z M54.998,54.7h2.997v-6.994h-2.997V54.7z"/>
		<path d="M66.613,55.7h-4.997V42.288h4.997V55.7z M62.616,54.7h2.997V43.288h-2.997V54.7z"/>
		<path d="M74.231,55.7h-4.997V36.464h4.997V55.7z M70.234,54.7h2.997V37.464h-2.997V54.7z"/>
		<path d="M81.849,55.7h-4.997V30.809h4.997V55.7z M77.852,54.7h2.997V31.809h-2.997V54.7z"/>
		<path d="M89.467,55.7H84.47V26.835h4.997V55.7z M85.47,54.7h2.997V27.835H85.47V54.7z"/>
	</g>
</g>
</svg>
