<?xml version="1.0" encoding="utf-8"?>
<!-- Generator: Adobe Illustrator 24.2.1, SVG Export Plug-In . SVG Version: 6.00 Build 0)  -->
<svg version="1.1" id="Layer_1" xmlns="http://www.w3.org/2000/svg" xmlns:xlink="http://www.w3.org/1999/xlink" x="0px" y="0px"
	 viewBox="0 0 101 101" style="enable-background:new 0 0 101 101;" xml:space="preserve">
<style type="text/css">
	.st0{fill:#231F20;}
</style>
<g>
	<path class="st0" d="M95.5,0h-90C2.467,0,0,2.467,0,5.5v90c0,3.032,2.467,5.5,5.5,5.5h90c3.032,0,5.5-2.468,5.5-5.5v-90
		C101,2.467,98.533,0,95.5,0z M5.5,1h90c2.481,0,4.5,2.019,4.5,4.5v5.629H1V5.5C1,3.019,3.019,1,5.5,1z M95.5,100h-90
		C3.019,100,1,97.981,1,95.5V12.129h99V95.5C100,97.981,97.982,100,95.5,100z"/>
	<path class="st0" d="M94.263,8.45c1.379,0,2.5-1.122,2.5-2.5s-1.121-2.5-2.5-2.5s-2.5,1.122-2.5,2.5S92.884,8.45,94.263,8.45z
		 M94.263,4.45c0.827,0,1.5,0.673,1.5,1.5s-0.673,1.5-1.5,1.5s-1.5-0.673-1.5-1.5S93.436,4.45,94.263,4.45z"/>
	<path class="st0" d="M88.726,8.45c1.379,0,2.5-1.122,2.5-2.5s-1.121-2.5-2.5-2.5s-2.5,1.122-2.5,2.5S87.347,8.45,88.726,8.45z
		 M88.726,4.45c0.827,0,1.5,0.673,1.5,1.5s-0.673,1.5-1.5,1.5s-1.5-0.673-1.5-1.5S87.899,4.45,88.726,4.45z"/>
	<path class="st0" d="M83.19,8.45c1.379,0,2.5-1.122,2.5-2.5s-1.121-2.5-2.5-2.5s-2.5,1.122-2.5,2.5S81.811,8.45,83.19,8.45z
		 M83.19,4.45c0.827,0,1.5,0.673,1.5,1.5s-0.673,1.5-1.5,1.5s-1.5-0.673-1.5-1.5S82.363,4.45,83.19,4.45z"/>
	<path class="st0" d="M59.579,43.019h-4.997v8.994h4.997V43.019z M58.579,51.013h-2.997v-6.994h2.997V51.013z"/>
	<path class="st0" d="M67.197,38.601H62.2v13.412h4.997V38.601z M66.197,51.013H63.2V39.601h2.997V51.013z"/>
	<path class="st0" d="M74.815,32.776h-4.997v19.236h4.997V32.776z M73.815,51.013h-2.997V33.776h2.997V51.013z"/>
	<path class="st0" d="M82.433,27.122h-4.997v24.891h4.997V27.122z M81.433,51.013h-2.997V28.122h2.997V51.013z"/>
	<path class="st0" d="M90.051,23.147h-4.997v28.865h4.997V23.147z M89.051,51.013h-2.997V24.147h2.997V51.013z"/>
	<path class="st0" d="M28.196,54.155c9.14,0,16.575-7.436,16.575-16.575c0-9.139-7.436-16.575-16.575-16.575
		S11.621,28.441,11.621,37.58C11.621,46.72,19.056,54.155,28.196,54.155z M28.196,53.155c-4.752,0-9.008-2.145-11.867-5.512
		L28.28,38.97l15.35,0.599C42.648,47.219,36.109,53.155,28.196,53.155z M43.771,37.58c0,0.335-0.029,0.662-0.05,0.992l-15.065-0.588
		l0.946-15.908C37.533,22.79,43.771,29.467,43.771,37.58z M28.196,22.005c0.137,0,0.271,0.017,0.407,0.021l-0.961,16.172
		l-11.929,8.657c-1.933-2.595-3.092-5.798-3.092-9.275C12.621,28.992,19.607,22.005,28.196,22.005z"/>
	<path class="st0" d="M88.026,69.294c-0.981,0-1.799,0.7-1.985,1.627l-14.69,3.757c-0.263-0.814-1.018-1.409-1.919-1.409
		c-0.97,0-1.781,0.686-1.978,1.598l-14.687,2.616c-0.251-0.833-1.016-1.445-1.93-1.445c-0.908,0-1.669,0.604-1.926,1.429
		l-14.688-3.119c-0.192-0.919-1.007-1.611-1.982-1.611c-0.985,0-1.806,0.707-1.986,1.641l-14.696,4.366
		c-0.269-0.804-1.019-1.388-1.912-1.388c-1.117,0-2.025,0.908-2.025,2.025s0.909,2.025,2.025,2.025c0.985,0,1.806-0.707,1.986-1.641
		L30.328,75.4c0.269,0.804,1.019,1.388,1.912,1.388c0.908,0,1.669-0.604,1.926-1.429l14.688,3.119
		c0.192,0.918,1.008,1.61,1.982,1.61c0.97,0,1.781-0.686,1.978-1.597l14.687-2.616c0.251,0.833,1.016,1.445,1.931,1.445
		c0.981,0,1.799-0.7,1.985-1.627l14.691-3.757c0.263,0.814,1.018,1.408,1.919,1.408c1.117,0,2.025-0.908,2.025-2.024
		C90.051,70.202,89.143,69.294,88.026,69.294z M13.646,80.406c-0.565,0-1.025-0.46-1.025-1.025s0.46-1.025,1.025-1.025
		c0.565,0,1.025,0.46,1.025,1.025S14.211,80.406,13.646,80.406z M32.241,75.788c-0.565,0-1.025-0.46-1.025-1.025
		s0.46-1.025,1.025-1.025c0.565,0,1.025,0.46,1.025,1.025S32.806,75.788,32.241,75.788z M50.836,79.088
		c-0.565,0-1.025-0.46-1.025-1.024c0-0.565,0.46-1.025,1.025-1.025c0.565,0,1.025,0.46,1.025,1.025
		C51.861,78.628,51.401,79.088,50.836,79.088z M69.431,76.32c-0.565,0-1.025-0.46-1.025-1.025s0.46-1.025,1.025-1.025
		s1.025,0.46,1.025,1.025S69.997,76.32,69.431,76.32z M88.026,72.344c-0.565,0-1.025-0.46-1.025-1.024
		c0-0.565,0.46-1.025,1.025-1.025s1.025,0.46,1.025,1.025C89.051,71.884,88.591,72.344,88.026,72.344z"/>
	<path class="st0" d="M7.188,91.207h87.575V60.039H7.188V91.207z M8.188,61.039h85.575v29.168H8.188V61.039z"/>
</g>
</svg>
