<?xml version="1.0" encoding="utf-8"?>
<!-- Generator: Adobe Illustrator 24.2.1, SVG Export Plug-In . SVG Version: 6.00 Build 0)  -->
<svg version="1.1" id="Layer_1" xmlns="http://www.w3.org/2000/svg" xmlns:xlink="http://www.w3.org/1999/xlink" x="0px" y="0px"
	 width="101.042px" height="101.076px" viewBox="0 0 101.042 101.076" style="enable-background:new 0 0 101.042 101.076;"
	 xml:space="preserve">
<g>
	<path d="M91.834,50.456c2.886-5.028,5.169-10.078,6.743-15.007c4.123-12.907,2.947-23.462-3.313-29.721
		C86.304-3.233,68.71-1.216,50.501,9.221c-3.239-1.867-6.483-3.483-9.683-4.812c0.032-0.179,0.055-0.361,0.055-0.549
		c0-1.746-1.42-3.167-3.167-3.167c-1.168,0-2.179,0.643-2.728,1.587C22.276-1.674,11.885-0.461,5.697,5.725
		c-8.795,8.795-7.236,26.187,3.493,44.81C-1.244,68.742-3.259,86.333,5.7,95.293c3.806,3.806,9.188,5.729,15.721,5.729
		c4.243,0,8.975-0.819,14.072-2.455c0.518,1.045,1.586,1.771,2.828,1.771c1.746,0,3.167-1.421,3.167-3.167
		c0-0.279-0.048-0.545-0.116-0.803c3.02-1.282,6.043-2.794,9.048-4.514c10.326,5.98,20.438,9.221,28.934,9.221
		c5.207,0,9.8-1.228,13.471-3.774c0.559,0.495,1.285,0.805,2.088,0.805c1.746,0,3.167-1.421,3.167-3.167
		c0-0.803-0.31-1.528-0.804-2.087C103.977,83.195,101.476,67.109,91.834,50.456z M79.499,1.002c6.152,0,11.372,1.747,15.059,5.433
		c5.981,5.981,7.071,16.177,3.067,28.709c-1.503,4.703-3.657,9.521-6.374,14.324c-4.462-7.497-10.349-15.084-17.492-22.227
		c-6.92-6.92-14.575-12.89-22.291-17.458C61.52,4.082,71.332,1.002,79.499,1.002z M16.025,62.164c-1.195,0-2.167-0.972-2.167-2.167
		c0-0.712,0.349-1.339,0.88-1.734l0.007-0.005c0.18-0.132,0.377-0.231,0.581-0.302c0.022-0.008,0.044-0.014,0.067-0.021
		c0.203-0.064,0.413-0.102,0.628-0.102c1.195,0,2.167,0.972,2.167,2.167c0,0.165-0.021,0.327-0.057,0.484
		c-0.006,0.027-0.017,0.052-0.025,0.079c-0.035,0.127-0.079,0.25-0.136,0.368c-0.015,0.031-0.033,0.06-0.049,0.09
		c-0.063,0.116-0.136,0.227-0.22,0.331c-0.014,0.018-0.029,0.036-0.044,0.053c-0.104,0.12-0.22,0.231-0.352,0.329l-0.106,0.078
		C16.861,62.033,16.459,62.164,16.025,62.164z M18.669,61.732c0.021-0.032,0.034-0.067,0.054-0.1
		c0.084-0.138,0.165-0.279,0.228-0.43c0.024-0.059,0.036-0.123,0.057-0.184c0.111-0.322,0.184-0.662,0.184-1.022
		c0-1.746-1.42-3.167-3.167-3.167c-0.246,0-0.482,0.034-0.712,0.088c-0.04,0.009-0.078,0.026-0.118,0.037
		c-0.193,0.053-0.377,0.121-0.554,0.208c-0.017,0.008-0.036,0.011-0.053,0.02c-1.55-2.233-2.964-4.46-4.256-6.669
		c4.44-7.611,10.36-15.334,17.589-22.563c7.226-7.226,14.944-13.15,22.552-17.589c7.807,4.559,15.57,10.582,22.578,17.589
		c7.191,7.191,13.12,14.938,17.57,22.598C86.1,58.294,80.132,65.981,73.043,73.071c-7.093,7.093-14.742,13.043-22.525,17.574
		c-7.66-4.449-15.406-10.378-22.596-17.568c-3.442-3.442-6.681-7.099-9.633-10.874C18.43,62.058,18.557,61.901,18.669,61.732z
		 M37.706,1.693c1.195,0,2.167,0.972,2.167,2.167c0,0.201-0.036,0.392-0.088,0.577L39.75,4.54c-0.22,0.656-0.729,1.149-1.353,1.363
		c-0.018,0.006-0.037,0.011-0.055,0.017c-0.203,0.063-0.416,0.102-0.636,0.102c-1.193,0-2.164-0.97-2.167-2.162
		c0-0.142,0.016-0.279,0.042-0.413c0.02-0.1,0.053-0.2,0.088-0.299c0.012-0.034,0.019-0.07,0.032-0.104l0.016-0.041
		C36.052,2.233,36.816,1.693,37.706,1.693z M6.404,6.432c5.9-5.9,15.903-7.041,28.206-3.228c0,0,0,0.001,0,0.001
		c-0.035,0.165-0.047,0.336-0.055,0.509c-0.002,0.047-0.015,0.094-0.015,0.141c0,0.002,0,0.003,0,0.005l0,0
		c0,1.746,1.42,3.167,3.167,3.167c0.047,0,0.091-0.012,0.138-0.014c0.129-0.006,0.257-0.018,0.383-0.039
		c0.082-0.014,0.162-0.031,0.242-0.051c0.099-0.025,0.195-0.056,0.29-0.09c0.127-0.045,0.248-0.098,0.367-0.158
		c0.082-0.042,0.163-0.083,0.241-0.131c0.086-0.053,0.166-0.111,0.246-0.172c0.052-0.039,0.101-0.081,0.15-0.124
		c0.281-0.243,0.516-0.531,0.698-0.858c0.008-0.014,0.018-0.027,0.026-0.041c2.979,1.24,5.997,2.739,9.013,4.452
		c-7.537,4.443-15.154,10.31-22.285,17.441C20.08,34.377,14.21,41.999,9.767,49.54C-0.483,31.516-1.989,14.825,6.404,6.432z
		 M38.321,99.339c-0.896,0-1.667-0.546-1.996-1.324l-0.065-0.21c-0.032-0.104-0.054-0.198-0.071-0.291
		c-0.018-0.112-0.035-0.225-0.035-0.343c0-1.194,0.972-2.166,2.167-2.166c0.012,0,0.023,0.003,0.034,0.003
		c0.177,0.003,0.349,0.031,0.515,0.076c0.048,0.013,0.094,0.028,0.14,0.044c0.16,0.055,0.315,0.123,0.457,0.213
		c0.012,0.007,0.025,0.012,0.037,0.02c0.158,0.104,0.3,0.232,0.426,0.375c0.02,0.022,0.038,0.046,0.057,0.069
		c0.121,0.148,0.229,0.31,0.309,0.491l0.032,0.071c0.1,0.249,0.159,0.52,0.159,0.805C40.488,98.367,39.516,99.339,38.321,99.339z
		 M40.977,95.456c-0.002-0.003-0.005-0.005-0.007-0.008c-0.135-0.207-0.295-0.396-0.474-0.566c-0.038-0.036-0.081-0.065-0.12-0.099
		c-0.141-0.121-0.29-0.23-0.451-0.326c-0.065-0.038-0.129-0.073-0.196-0.107c-0.152-0.076-0.31-0.138-0.475-0.189
		c-0.071-0.022-0.14-0.049-0.213-0.066c-0.213-0.05-0.432-0.08-0.659-0.084c-0.022,0-0.042-0.008-0.064-0.008
		c-1.746,0-3.167,1.421-3.167,3.167c0,0.146,0.012,0.296,0.038,0.45c-12.573,4.038-22.783,2.965-28.783-3.035
		C-2.172,86.006-0.24,69.124,9.755,51.5c1.23,2.078,2.571,4.169,4.026,6.265c-0.57,0.573-0.923,1.362-0.923,2.232
		c0,1.746,1.421,3.167,3.167,3.167c0.53,0,1.023-0.143,1.462-0.375c2.982,3.817,6.25,7.516,9.728,10.995
		c7.138,7.138,14.721,13.028,22.215,17.49C46.621,92.858,43.797,94.259,40.977,95.456z M51.528,91.219
		c7.683-4.536,15.223-10.442,22.222-17.441c6.997-6.997,12.912-14.576,17.442-22.229c9.057,16.043,11.548,31.58,5.323,40.671
		c-0.011-0.006-0.023-0.008-0.034-0.014c-0.208-0.12-0.429-0.214-0.662-0.284c-0.039-0.012-0.076-0.026-0.115-0.036
		c-0.254-0.066-0.516-0.112-0.79-0.112c-1.746,0-3.166,1.42-3.166,3.166c0,0.279,0.048,0.545,0.116,0.803
		c0.007,0.026,0.017,0.052,0.024,0.078c0.073,0.252,0.175,0.489,0.305,0.711c0.001,0.003,0.002,0.005,0.003,0.008
		C83.103,102.762,67.569,100.273,51.528,91.219z M94.913,97.107c-0.587,0-1.118-0.236-1.508-0.617l-0.129-0.154
		c-0.34-0.403-0.52-0.883-0.52-1.389c0-1.195,0.972-2.167,2.167-2.167c0.249,0,0.492,0.045,0.723,0.13
		c0.004,0.001,0.008,0.002,0.012,0.004c0.233,0.087,0.453,0.216,0.653,0.385l0.141,0.119c0.387,0.391,0.627,0.929,0.627,1.521
		C97.08,96.135,96.108,97.107,94.913,97.107z"/>
	<path d="M50.485,72.97c5.7,0,16.479-0.742,16.479-3.552V59.96v-0.134v-9.325v-0.134v-9.325v-0.134V31.45h-0.019
		c-0.393-2.681-10.868-3.397-16.46-3.397s-16.068,0.716-16.461,3.397h-0.019v9.458v0.134v9.325v0.134v9.325v0.134v9.459
		C34.005,72.228,44.785,72.97,50.485,72.97z M65.964,69.419c0,0.866-5.464,2.552-15.479,2.552c-10.016,0-15.479-1.686-15.479-2.552
		v-8.086c2.507,1.507,9.399,2.201,15.479,2.201s12.972-0.694,15.479-2.201V69.419z M35.005,32.957
		c0.004,0.002,0.009,0.004,0.013,0.007c1.113,0.673,3.039,1.157,5.249,1.496c0.111,0.017,0.223,0.034,0.336,0.05
		c0.115,0.017,0.23,0.033,0.347,0.049c2.626,0.366,5.687,0.56,8.627,0.593c0.314,0.004,0.619,0.006,0.909,0.006
		s0.595-0.002,0.909-0.006c2.942-0.033,6.004-0.227,8.631-0.594c0.114-0.016,0.227-0.031,0.34-0.048
		c0.114-0.017,0.228-0.033,0.34-0.051c2.209-0.339,4.135-0.823,5.247-1.495c0.004-0.002,0.009-0.004,0.012-0.006v8.085
		c0,0.04-0.024,0.083-0.047,0.127c-0.04,0.064-0.096,0.127-0.166,0.191c-0.01,0.008-0.014,0.016-0.025,0.024
		c-0.021,0.018-0.052,0.036-0.075,0.053c-1.275,0.901-6.519,2.157-15.166,2.157c-8.642,0-13.885-1.254-15.164-2.155
		c-0.024-0.018-0.057-0.037-0.078-0.055c-0.01-0.008-0.015-0.016-0.024-0.024c-0.07-0.064-0.126-0.128-0.166-0.191
		c-0.023-0.043-0.047-0.087-0.047-0.127V32.957z M35.005,42.415c2.507,1.506,9.399,2.201,15.479,2.201s12.972-0.694,15.479-2.201
		v8.085c0,0.04-0.024,0.083-0.047,0.126c-0.04,0.065-0.097,0.13-0.17,0.195c-0.008,0.007-0.011,0.013-0.02,0.019
		c-0.023,0.02-0.058,0.039-0.084,0.059c-1.285,0.901-6.526,2.153-15.159,2.153c-8.642,0-13.886-1.255-15.164-2.156
		c-0.024-0.018-0.057-0.037-0.078-0.055c-0.01-0.008-0.015-0.016-0.024-0.024c-0.07-0.064-0.126-0.128-0.166-0.191
		c-0.023-0.043-0.047-0.087-0.047-0.127V42.415z M35.005,51.874c2.507,1.507,9.399,2.201,15.479,2.201s12.972-0.694,15.479-2.201
		v8.086c0,0.04-0.024,0.083-0.047,0.126c-0.04,0.065-0.097,0.13-0.169,0.195c-0.008,0.007-0.012,0.013-0.02,0.02
		c-0.023,0.02-0.057,0.039-0.083,0.058c-1.284,0.901-6.525,2.153-15.16,2.153c-8.644,0-13.888-1.255-15.165-2.156
		c-0.023-0.018-0.056-0.036-0.077-0.054c-0.01-0.008-0.015-0.016-0.025-0.024c-0.07-0.064-0.126-0.127-0.166-0.191
		c-0.023-0.043-0.047-0.087-0.047-0.127V51.874z M50.485,29.053c10.015,0,15.479,1.686,15.479,2.552
		c0,0.027-0.021,0.057-0.032,0.086l-0.003,0.005c-0.108,0.183-0.36,0.368-0.716,0.551c-1.224,0.59-3.944,1.26-8.045,1.629
		c-0.032,0.003-0.064,0.006-0.096,0.008c-0.389,0.034-0.796,0.065-1.209,0.094c-0.142,0.01-0.284,0.02-0.428,0.029
		c-0.328,0.021-0.668,0.038-1.01,0.055c-0.198,0.01-0.393,0.02-0.594,0.028c-0.339,0.014-0.69,0.024-1.042,0.033
		c-0.198,0.005-0.392,0.013-0.594,0.017c-0.555,0.011-1.123,0.018-1.709,0.018c-0.586,0-1.154-0.007-1.709-0.018
		c-0.202-0.004-0.397-0.011-0.595-0.017c-0.352-0.01-0.702-0.02-1.04-0.033c-0.203-0.008-0.399-0.018-0.598-0.028
		c-0.341-0.017-0.679-0.034-1.005-0.055c-0.146-0.009-0.29-0.019-0.433-0.029c-0.411-0.029-0.816-0.059-1.203-0.093
		c-0.034-0.003-0.068-0.006-0.102-0.009c-4.094-0.369-6.81-1.037-8.037-1.626c-0.36-0.184-0.614-0.37-0.722-0.554l-0.002-0.004
		c-0.011-0.029-0.032-0.059-0.032-0.087C35.005,30.739,40.469,29.053,50.485,29.053z"/>
</g>
</svg>
